<svg xmlns="http://www.w3.org/2000/svg" width="512" height="512" viewBox="0 0 431.985 431.985">
  <path d="M423.26 51.83c-.8-2.05-2.67-3.48-4.86-3.75-2.17-.27-4.33.68-5.6 2.47-7.6 10.63-17.54 14.17-29.06 18.28-9.3 3.3-18.9 6.73-29.3 14.18-14.67 10.6-21.4 25-18.04 38.6l-.36.5c-6.13-8.9-12.8-17.1-19.85-24.4-33-34.4-79-55-126.4-56.7-2.1-.1-4.2-.1-6.3-.1-52.9 0-103.5 23.6-138.8 64.8C9.6 146.57-6 199.9 2 251.9c.68 4.34 1.5 8.74 2.5 13.06 13 57.2 46.2 100.7 91.07 119.38 11.1 4.6 22.24 6.93 33.2 6.93 27.14 0 50.9-14.54 65.1-39.9 5.42-9.63 8.9-19.6 10.37-29.64.86-5.9.27-11.8-.3-17.55-.6-5.9-1.16-11.47-.26-17.1 2.05-12.85 11.04-20.54 24.05-20.54 3.7 0 7.5.67 11.25 1.87-4.4 8.1-8.42 15.9-11.93 23.1-7.44 15.2-12.57 27.8-15.26 37.5-1.7 5.98-6.1 21.77 4.7 29.2 3.4 2.37 7.7 3.2 12.2 2.37 4-.75 16.4-3.04 51.4-42.9 9.4-10.7 19.5-23.07 30.1-36.8 27.1-9.14 48.3-31.9 53.9-58.1 1.4-6.52 2-13.52 1.7-20.8 10.2-15.7 19.1-30.4 28.1-46.14.2-.3.3-.6.5-.92 13-3.57 24.3-13.7 30.8-27.9 9.6-20.7 8.9-47.3-2-74.9zm-146.88 98c-4.7 7.5-12.8 11.96-21.67 11.96-4.8 0-9.5-1.4-13.6-4-5.7-3.7-9.8-9.3-11.3-16s-.3-13.5 3.3-19.3c4.7-7.5 12.8-12 21.7-12 4.8 0 9.5 1.3 13.6 3.9 5.8 3.6 9.8 9.3 11.3 16s.4 13.5-3.3 19.3zm33.2 46.36c12.95-19.1 26.62-38 39.62-54.9 2.1 1.9 4.46 3.7 7 5.5 4.23 2.9 8.66 5.2 13.17 6.7-10.97 18.7-22.76 37.3-37.04 58.4-23.46 34.5-47.86 66.6-68.7 90.4-11.63 13.2-21.82 23.5-29.67 29.8 3.03-9.7 8.82-23 16.88-38.8 14.4-28.18 35.27-62.75 58.75-97.3zM82.52 196c-4.8 0-9.5-1.36-13.6-3.94-5.78-3.64-9.8-9.3-11.32-15.97-1.5-6.7-.34-13.5 3.3-19.3 4.72-7.5 12.82-12 21.68-12 4.8 0 9.5 1.3 13.6 3.9 11.94 7.5 15.54 23.3 8.02 35.2-4.7 7.5-12.82 11.9-21.67 11.9zm-26.8 56.34c4.7-7.5 12.8-11.96 21.66-11.96 4.8 0 9.52 1.36 13.6 3.94 5.8 3.64 9.8 9.32 11.32 15.98 1.52 6.66.34 13.52-3.3 19.3-4.7 7.48-12.8 11.95-21.67 11.95-4.8 0-9.5-1.36-13.6-3.93-5.78-3.65-9.8-9.32-11.3-15.98-1.52-6.67-.35-13.52 3.3-19.3zM137.6 100.4c4.7-7.47 12.8-11.94 21.67-11.94 4.8 0 9.5 1.36 13.6 3.94 11.93 7.5 15.53 23.34 8.02 35.28-4.8 7.48-12.9 11.95-21.7 11.95-4.8 0-9.5-1.36-13.6-3.94-5.8-3.7-9.8-9.4-11.3-16-1.5-6.7-.4-13.5 3.3-19.3z" fill="#242424"/>
</svg>
