<svg width="48" height="47" viewBox="0 0 48 47" xmlns="http://www.w3.org/2000/svg">
  <title>
    Github-black
  </title>
  <path d="M24 0C10.75 0 0 10.8 0 24.1c0 10.64 6.88 19.67 16.4 22.86 1.2.22 1.65-.52 1.65-1.16l-.03-4.1c-6.68 1.46-8.1-3.23-8.1-3.23-1.08-2.78-2.65-3.52-2.65-3.52-2.18-1.5.17-1.47.17-1.47 2.4.17 3.67 2.48 3.67 2.48 2.16 3.7 5.64 2.62 7 2 .2-1.55.84-2.6 1.53-3.22-5.33-.6-10.93-2.67-10.93-11.9 0-2.63.92-4.8 2.46-6.47-.25-.6-1.07-3.06.23-6.38 0 0 2-.66 6.6 2.45 1.9-.53 3.95-.8 6-.8s4.1.27 6 .8c4.6-3.1 6.6-2.47 6.6-2.47 1.3 3.3.5 5.76.23 6.37 1.54 1.68 2.47 3.84 2.47 6.47 0 9.25-5.6 11.3-10.95 11.9.86.73 1.63 2.2 1.63 4.45 0 3.2-.03 5.8-.03 6.6 0 .64.43 1.4 1.65 1.16C41.13 43.76 48 34.73 48 24.1 48 10.8 37.25 0 24 0" fill="#393939" fill-rule="evenodd"/>
</svg>
